<svg xmlns="http://www.w3.org/2000/svg" style="display:none">
  <symbol id="shield" viewBox="0 0 24 24" fill="currentColor">
    <path d="M12 2l7 3v6c0 5-3.1 9.2-7 10-3.9-.8-7-5-7-10V5l7-3z"/>
  </symbol>
  <symbol id="lock" viewBox="0 0 24 24" fill="currentColor">
    <path d="M17 9h-1V7a4 4 0 10-8 0v2H7a2 2 0 00-2 2v7a2 2 0 002 2h10a2 2 0 002-2v-7a2 2 0 00-2-2zm-6 0V7a2 2 0 114 0v2h-4z"/>
  </symbol>
  <symbol id="firewall" viewBox="0 0 24 24" fill="currentColor">
    <path d="M3 4h18v4H3V4zm0 6h18v4H3v-4zm0 6h18v4H3v-4z"/>
  </symbol>
  <symbol id="antivirus" viewBox="0 0 24 24" fill="currentColor">
    <path d="M12 2l8 4v6c0 5-3.6 9.6-8 10-4.4-.4-8-5-8-10V6l8-4zm0 6a4 4 0 100 8 4 4 0 000-8z"/>
  </symbol>
  <symbol id="network" viewBox="0 0 24 24" fill="currentColor">
    <path d="M12 3a4 4 0 110 8 4 4 0 010-8zm-7 9a3 3 0 110 6 3 3 0 010-6zm14 0a3 3 0 110 6 3 3 0 010-6zM7 15h10M12 11v2" stroke="currentColor" stroke-width="2" fill="none" stroke-linecap="round"/>
  </symbol>
  <symbol id="map-pin" viewBox="0 0 24 24" fill="currentColor">
    <path d="M12 2a7 7 0 00-7 7c0 5 7 13 7 13s7-8 7-13a7 7 0 00-7-7zm0 9a2 2 0 110-4 2 2 0 010 4z"/>
  </symbol>
  <symbol id="phone" viewBox="0 0 24 24" fill="currentColor">
    <path d="M6.6 10.8a15 15 0 006.6 6.6l2.2-2.2a1 1 0 011 .1c1 .5 2 .8 3.1.8a1 1 0 011 1V20a1 1 0 01-1 1A17 17 0 013 4a1 1 0 011-1h2.8a1 1 0 011 1c0 1.1.3 2.1.8 3.1a1 1 0 01-.1 1l-2 2.2z"/>
  </symbol>
  <symbol id="mail" viewBox="0 0 24 24" fill="currentColor">
    <path d="M3 5h18a2 2 0 012 2v10a2 2 0 01-2 2H3a2 2 0 01-2-2V7a2 2 0 012-2zm0 2l9 6 9-6"/>
  </symbol>
</svg>