<svg xmlns="http://www.w3.org/2000/svg" style="display:none">
  <!-- Basic sporty icon set as symbols for easy reuse -->
  <symbol id="icon-ball" viewBox="0 0 24 24" fill="none" stroke="currentColor" stroke-width="1.6" stroke-linecap="round" stroke-linejoin="round">
    <circle cx="12" cy="12" r="10"/>
    <path d="M2 12h20M12 2a10 10 0 0 1 0 20M4.5 4.5l15 15M19.5 4.5l-15 15" opacity=".2"/>
  </symbol>
  <symbol id="icon-dumbbell" viewBox="0 0 24 24" fill="none" stroke="currentColor" stroke-width="1.8" stroke-linecap="round" stroke-linejoin="round">
    <path d="M1.5 9v6M4 8v8M20 8v8M22.5 9v6M4 12h16"/>
  </symbol>
  <symbol id="icon-racket" viewBox="0 0 24 24" fill="none" stroke="currentColor" stroke-width="1.6" stroke-linecap="round" stroke-linejoin="round">
    <ellipse cx="9" cy="8" rx="6" ry="5"/>
    <path d="M13 11l8 9M16 14l-2 2M7 4l4 8M5 6l8 4" opacity=".3"/>
  </symbol>
  <symbol id="icon-whistle" viewBox="0 0 24 24" fill="none" stroke="currentColor" stroke-width="1.6" stroke-linecap="round" stroke-linejoin="round">
    <path d="M4 12a6 6 0 1 0 12 0h3l1.5-3L19 8l-2 2h-1A6 6 0 0 0 4 12z"/>
    <circle cx="9" cy="12" r="2"/>
  </symbol>
  <symbol id="icon-trophy" viewBox="0 0 24 24" fill="none" stroke="currentColor" stroke-width="1.6" stroke-linecap="round" stroke-linejoin="round">
    <path d="M8 21h8M12 17a5 5 0 0 0 5-5V3H7v9a5 5 0 0 0 5 5z"/>
    <path d="M7 5H4a3 3 0 0 0 3 3M17 5h3a3 3 0 0 1-3 3"/>
  </symbol>
  <symbol id="icon-cart" viewBox="0 0 24 24" fill="none" stroke="currentColor" stroke-width="1.6" stroke-linecap="round" stroke-linejoin="round">
    <circle cx="9" cy="20" r="1.5"/>
    <circle cx="18" cy="20" r="1.5"/>
    <path d="M2 3h3l2.5 12h11L21 7H7"/>
  </symbol>
  <symbol id="icon-phone" viewBox="0 0 24 24" fill="none" stroke="currentColor" stroke-width="1.6" stroke-linecap="round" stroke-linejoin="round">
    <path d="M22 16.92v3a2 2 0 0 1-2.18 2 19.8 19.8 0 0 1-8.63-3.07 19.5 19.5 0 0 1-6-6 19.8 19.8 0 0 1-3.07-8.63A2 2 0 0 1 4.11 2h3a2 2 0 0 1 2 1.72c.12.9.32 1.77.58 2.6a2 2 0 0 1-.45 2.11L8 9a16 16 0 0 0 7 7l.57-.24a2 2 0 0 1 2.11.45c.83.26 1.7.46 2.6.58A2 2 0 0 1 22 16.92z"/>
  </symbol>
  <symbol id="icon-mail" viewBox="0 0 24 24" fill="none" stroke="currentColor" stroke-width="1.6" stroke-linecap="round" stroke-linejoin="round">
    <rect x="3" y="5" width="18" height="14" rx="2"/>
    <path d="M3 7l9 6 9-6"/>
  </symbol>
  <symbol id="icon-facebook" viewBox="0 0 24 24" fill="currentColor">
    <path d="M22 12a10 10 0 1 0-11.6 9.9v-7H7.9V12h2.5V9.7c0-2.5 1.5-3.9 3.8-3.9 1.1 0 2.3.2 2.3.2v2.5h-1.3c-1.3 0-1.7.8-1.7 1.6V12h2.9l-.5 2.9h-2.4v7A10 10 0 0 0 22 12z"/>
  </symbol>
  <symbol id="icon-twitter" viewBox="0 0 24 24" fill="currentColor">
    <path d="M22 5.9c-.7.3-1.5.5-2.2.6.8-.5 1.4-1.3 1.7-2.2-.7.4-1.6.8-2.4 1-1.4-1.5-3.7-1.6-5.2-.2-1 1-1.4 2.5-.9 3.8-3.1-.2-5.9-1.6-7.8-3.9-1 1.8-.5 4 1.1 5.1-.6 0-1.3-.2-1.8-.5 0 2.1 1.5 3.8 3.6 4.2-.6.2-1.2.2-1.8.1.5 1.7 2.1 2.9 3.9 3-1.5 1.2-3.4 1.9-5.4 1.9H2c2 1.3 4.3 2 6.8 2 8.2 0 12.7-6.8 12.7-12.7v-.6c.8-.6 1.5-1.3 2-2.1z"/>
  </symbol>
  <symbol id="icon-instagram" viewBox="0 0 24 24" fill="none" stroke="currentColor" stroke-width="1.6" stroke-linecap="round" stroke-linejoin="round">
    <rect x="2" y="2" width="20" height="20" rx="5"/>
    <circle cx="12" cy="12" r="3.5"/>
    <circle cx="17.5" cy="6.5" r=".8" fill="currentColor" stroke="none"/>
  </symbol>
</svg>
